<?xml version="1.0" standalone="no"?>
<!DOCTYPE svg PUBLIC "-//W3C//DTD SVG 20010904//EN"
 "http://www.w3.org/TR/2001/REC-SVG-20010904/DTD/svg10.dtd">
<svg version="1.0" xmlns="http://www.w3.org/2000/svg"
 width="700.000000pt" height="700.000000pt" viewBox="0 0 700.000000 700.000000"
 preserveAspectRatio="xMidYMid meet">
<metadata>
Created by potrace 1.11, written by Peter Selinger 2001-2013
</metadata>
<g transform="translate(0.000000,700.000000) scale(0.100000,-0.100000)"
fill="#000000" stroke="none">
<path d="M1259 6996 c-2 -2 -26 -7 -52 -10 -200 -27 -396 -99 -567 -209 -36
-23 -67 -44 -70 -47 -3 -3 -27 -23 -55 -45 -229 -183 -406 -465 -475 -758 -10
-45 -23 -95 -27 -112 -4 -16 -9 -1042 -10 -2280 -2 -2298 -3 -2258 32 -2445
13 -74 78 -249 125 -339 168 -317 442 -554 778 -672 31 -11 104 -32 162 -47
l105 -27 2265 -1 c1916 -2 2277 0 2345 12 420 74 766 307 982 659 89 145 148
306 183 496 18 100 19 184 19 2334 0 2110 -1 2235 -18 2325 -20 105 -48 213
-61 238 -4 10 -20 47 -35 84 -104 260 -328 513 -582 658 -132 76 -306 141
-438 165 -16 2 -41 8 -55 12 -25 8 -4543 16 -4551 9z"/>
</g>
</svg>
